<?xml version="1.0" encoding="UTF-8"?>
<svg id="Layer_1" data-name="Layer 1" xmlns="http://www.w3.org/2000/svg" viewBox="0 0 298.74 531.2">
  <defs>
    <style>
      .cls-1 {
        fill: #462717;
        stroke: #462717;
        stroke-miterlimit: 10;
        stroke-width: 2px;
      }
    </style>
  </defs>
  <g id="Generative_Object" data-name="Generative Object">
    <path class="cls-1" d="M291.1,119.82c-7.5-2.81-15.04,3.96-17.49,11.11l-8.67,25.33-7.14,24.31c-2.3,7.84-5.19,15.01-8.8,22.34-5.21,10.56-9.3,21.23-13.13,32.32-2.15,6.23-5.12,11.8-9.14,16.81-1.97-2.99-2.77-5.96-2.81-9.27-.05-4.64.51-9.12,1.22-13.72l2-13.07,4.94-30.14,1.9-16.96.41-23.11c.26-14.77.87-29.1,2.38-43.79,1.07-10.38,1.81-20.43,1.56-30.8l-1.04-14.74c-.28-4-1.34-7.75-2.92-11.41-1.79-4.13-5.17-7.39-9.66-8.22-5.72-1.06-11.11,1.8-14.08,6.71-2.01,3.33-3.14,6.8-3.92,10.74-3.92,19.78-6.37,39.56-7.82,59.69l-1.84,15.2-5.65,29.11c-1.7,8.78-2.66,17.31-3.27,26.2l-1.01,14.72c-.23,3.31-2.81,12-5,12.44.3,1.36-.9,2.19-.34,2.59.33.23.73.1,1.05-.22,4.82-4.89,6.15-13.03,6.32-20.06.29-11.82,1.5-23.21,3.82-34.82l4.36-21.79c1.65-8.27,2.65-16.19,3.22-24.63l3.46-32.47,4.6-26.88c.66-3.86,2.13-7.29,4.45-10.39,2.53-3.38,6.33-5.25,10.61-4.71,3.82.48,7.31,3.05,9.01,6.93,4.59,10.48,4.4,27.8,3.88,39.74l-2.06,24.12c-1.09,12.79-1.48,25.24-1.66,38.07l-.22,15.7c-.1,6.97-.74,13.56-1.87,20.48l-4.66,28.41-2.72,17.73c-.69,4.49-1.06,8.82-1.08,13.35-.02,4.38,1.26,8.24,4.32,11.65.66-1.84,1.82-2.76,2.99-3.95,2.28-2.31,3.99-5.13,5.15-8.17l6.01-15.69c3.08-8.03,6.18-15.74,9.99-23.47,4.34-8.83,7.62-17.71,10.22-27.24,3.33-12.21,6.79-24.06,11.22-35.9l4.02-10.73c1.76-3.5,4.33-6.36,7.94-7.85,4.62-1.9,9.54.27,10.94,5.14.79,2.74,1.09,5.57.97,8.59-.52,13.15-1.78,26.07-4.68,38.97-3.95,17.6-9.34,34.49-14.82,51.62l-6.57,20.58c-3.4,10.64-5.91,21.22-7.78,32.27l-5.03,29.83-4.16,15.93-5.63,22.77-4.93,22.88-12.39,53.43-6.89,28.53c-1.87,7.74-3.2,15.25-3.08,23.29l.77,50.82c.43-.18.88-.31,1.34-.39l-.32-9.78-.3-34.65c-.09-9.98.87-19.42,3.24-29.13l9.63-39.5,8.72-38.09,5.67-26.41c2.19-10.2,4.72-19.85,7.62-29.86,3.74-12.91,5.35-25.96,7.32-39.23,1.46-9.84,3.86-19.17,6.79-28.63l6.76-21.76c6.42-19.2,12.41-38.31,16.53-58.2,2.33-11.27,3.14-22.55,3.76-33.96.36-6.56-.45-14.36-6.56-16.65Z"/>
    <path class="cls-1" d="M182.09,210.97c-.14.02-.33.03-.45-.02-.79-.33-1.66-7.33-1.66-11.03-.03-16.35.33-32.39,1.21-48.74l1.48-27.45.25-18.08.16-26.1,1.97-37.1c.54-10.23.15-20.12-1.4-30.19-.36-2.32-1.15-4.72-2.85-6.27-4.18-3.81-10.07-4.3-15.16-2.18-4.51,1.87-7.74,5.18-9.4,9.83l-3.71,13.69c-2.4,10.99-3.41,21.9-4.44,33.12l-2.2,23.82-4.13,33.7c-1.01,8.26-1.62,16.17-1.73,24.48l-.2,15.42c-.19,14.83-.58,29.38-2.22,44.09-.35,3.11-.71,5.9-1.66,8.78-1.29,3.93-4.7,7.08-7.79,5.64-2.4-1.13-2.78-7.18-3.12-11.09-.93-10.76-1.63-21.25-1.07-32.07s.57-21.91-.19-33.12c-.67-9.93-1.44-19.48-.92-29.41l2.29-24.43c1.09-11.67,2.12-36.27-.79-46.15-.88-2.99-2.51-5.77-5.31-7.18-3.02-1.53-6.48-1.25-9.64-.41-3.32.88-5.63,2.95-7.33,5.85-2.45,4.2-4.06,8.54-5.65,13.18-3.37,9.83-5.51,19.62-6.33,30.06-1.06,13.45-2.38,26.43-4.33,39.79l-3.96,33.44-2.35,43.15-1.05,20.05c-.41,7.78-1.59,15.16-3.39,22.72-1.38,5.8-1.84,11.44-2.51,17.35l-1.22,10.75-.11,9.67c-.59,6.23-1.68,12.25-3.3,18.26-.52,1.91-1.61,3.42-2.97,4.7l-5.33,5.02c-.19.18-.46.17-.63.06-.16-.11-.31-.47-.04-.74l4.63-4.77c1.72-1.77,3.39-4.48,3.53-7.03-2.22-5.62-3.87-11.17-4.93-17.11l-1.99-8.41c-.87-3.68-3.06-6.73-5.58-9.51-.2-.22.04-.72.18-.81.88.03,1.5.74,2.19,1.49,2.99,3.29,4.81,7.42,5.73,11.86,1.37,6.63,2.64,13.1,4.96,19.39,1.31-5.28,1.94-9.99,2.21-15.01l-.13-6.13,1.4-12.97c.67-6.16,1.3-12.05,2.7-18.1,1.29-5.61,2.35-10.96,2.65-16.73l1.69-31.73c1.27-23.9,2.72-47.41,6.26-71.07,1.52-10.18,2.34-20.06,3.46-30.24l2.02-18.49c1.82-10.78,5.13-21.06,9.71-30.92,2.94-6.34,7.68-9.22,14.63-9.26,8.35-.04,11.71,6.66,12.66,14.51,1.18,9.86,1.08,19.48.61,29.43l-2.07,25.76-1.24,16.39.91,18.73c1.07,13.4,1.07,26.36.45,39.8-.53,11.38.34,22.41,1.41,33.64l1.12,5.3c.14.68.67,1.19,1.1,1.32,2.46.75,5.53-3.97,6.2-8.58,1.59-11,2.47-21.81,2.64-33l.52-33.8c.16-10.43,1.36-20.38,2.67-30.7l3.26-25.81,2.67-29.11c1-10.95,2.35-21.48,4.94-32.11.89-3.64,1.74-7.05,3.23-10.4,3.83-8.57,13.36-12.75,22.09-9.59,3.98,1.44,6.59,4.33,7.52,8.48l1.11,9.53c.89,7.63.88,15.04.52,22.74l-1.05,21.91c-.61,12.63-1.43,24.89-1.12,37.59l-.18,23.78-2.41,50.81-.21,24.74.69,6.35c.12,1.09.14,2.09-.18,2.99Z"/>
    <path class="cls-1" d="M69.12,445.08c2.18,3.77,3.47,7.31,4.27,11.61,3.95,21.22,6.96,48.36,8.65,73.38.51-.07,1.03-.07,1.54-.02-1.63-24.58-4.36-49.11-8.49-73.22-.63-3.68-1.43-7.05-3.26-10.22l-22.83-39.6-14.61-24.2-8.98-13.76c-3.53-5.41-5.82-11.09-5.9-17.59l-.24-18.12-2.47-29.38c-.81-9.58-2.38-18.64-4.01-28.06-.55-3.17-1.1-6.26-.65-9.4l2.27-15.75c.65-4.51.72-8.81-.02-13.28-.95-5.74-.83-11.32-.36-17.09l.09-12.32c-1.59-4.01-3.69-7.57-6.54-10.77-1.07-1.21-2.3-1.76-4.18-1.67,4.01-6.62,10.48-11.11,17.12-6.59,9.44,6.43,16.17,19.55,20.27,30.26,2.19,5.73,4.21,11.24,5.59,17.21.09.4.11.79.4.97.24.15.6.17.86.23.29-.53.35-1.16.18-1.85-1.47-6.19-3.52-11.92-5.8-17.86-4.03-10.53-11.07-23.82-20.3-30.12-4.65-3.18-10.44-2.89-14.7.91-2.36,2.1-4.73,4.91-5.98,7.83.42,5.04,2,9.77,4.02,14.29l5.49,12.25c1.17,2.61,1.66,5.07,1.66,7.94l1.16,10.67c.35,3.19-.22,6.24-.65,9.4l-2.14,15.75c-.57,4.21.38,8.43,1.18,12.64,1.43,7.54,2.24,14.76,3.1,22.42,1.17,10.45,2.68,20.55,2.83,31.09l.24,17.76c.06,4.3.6,8.46,2.43,12.36l8.26,13.75,3.07,4.62,11.09,18.06,26.37,45.47ZM12.57,223.69l-5.89-12.84c-2-4.36-3.49-8.73-4.21-13.57,1.84-.9,3.95-.3,4.91,1.54l6.13,10.71c-.14,4.67.02,9.13-.94,14.16Z"/>
  </g>
</svg>