<?xml version="1.0" encoding="UTF-8"?>
<svg id="Layer_1" data-name="Layer 1" xmlns="http://www.w3.org/2000/svg" viewBox="0 0 449.02 513.91">
  <path d="M446.82,431.03c-2.51-2.74-5.69-4.67-9.11-6.1l-12.62-5.26-32.15-12.64-26.35-10.86-26.69-12.52-13.58-7.23-14.64-8.55-31.32-20.46-8.47-5.94-13.46-9.98-17.58-13.75-8.76-7.48,12.69-2.42,11.5-1.6c1.48-.21,2.8.2,3.97,1.2l5.48,4.72c2.21,1.91,4.63,2.75,7.5,3.12,3.5.45,6.77.37,10.16-.79,8.27-2.83,17.68-11.89,20.68-19.72l8.47-22.03,13.06-37,7.09-19.55c3.34-9.2,7.45-16.53,15.32-22.48,1.97-1.49,3.77-3,5.37-4.89,3.14-3.68,4.2-8.48,2.84-13.2-1.15-3.98-3.5-7.34-6.14-10.49-5.29-6.34-18.1-15.62-25.4-19.75l-20.75-11.74-7.22-2.78c-4.15-1.6-8.63-1.66-12.69.34l-6.49,3.19c-4.43,2.17-8.51,4.99-13.36,6.23l-19.38,4.92-12.16,2.95,1.33-24.05,18.82-5.1,15.49-3.9,24-5.57,14.1-2.9,11.66-2.41c3.7-.76,7.05-2.32,10.06-4.58,3.49-2.62,5.1-6.6,4.62-10.96-1.17-10.66-8.47-17.27-17.89-21.63-4.16-1.93-8.3-3.42-12.79-4.48l-16.55-3.92c-11.19-2.65-17.32,5.79-27.42,9.34l-20.36,7.15c-.19.07-.44.22-.61.14-.1-.05-.14-.19-.06-.46.8-6.27,1.73-12.52,4.25-18.37l5.02-11.63c1.13-2.61,1.66-5.34,1.81-8.23.46-8.96-5.15-14.78-12.4-19.34-5.62-3.54-11.41-6.36-17.68-8.67-7.78-2.87-15.46-5.3-23.51-7.24-6.94-1.67-16.22-2.85-22.33.44-5.48,2.95-11.18,9.68-8.8,16.01l4.33,11.5c1.65,4.38,3.09,8.53,3.83,13.19,1.05,6.53,1.68,12.84,1.91,19.48l1.06,31.8-12.56,3.53-17.16,4.84-29.13,8.01-14.16,3.76c-9.48,2.51-18.84,4.24-28.64,5.02-3.63.29-7.01.78-10.34,1.93-3.06,1.05-4.65,3.78-4.17,7,.44,2.94,1.83,5.6,3.75,7.97,4.35,5.4,9.37,9.86,14.91,14.09,7.84,5.99,16.31,10.79,25.59,14.21,10.35,3.81,19.17,3.69,29.22-.94l26.02-12.01,17.5-7.45.42,21.4-19.17,7.33c-14.57,5.57-30.96,13.17-43.97,21.67-5.26,3.44-9.98,7.26-14.81,11.28-7.68-4.3-15.72-7.2-24.27-8.67-6.28-1.08-12.49.19-17.44,4.14-4,3.19-3.33,8.58-1.55,13.39,2.01,5.43,4.61,10.35,7.44,15.4,2.16,3.86,3.99,7.68,5.42,11.85l3.22,9.38c2.42,7.04,3.93,14.12,5.17,21.51,1.62,9.71,3.38,19.08,6.03,28.55,3.2,11.45,8.54,20.6,15.98,29.71,4.64,5.68,10.52,9.78,17.84,10.82,7.39,1.05,15.28-3.04,17.88-10.19.24-.66.79-1.97,1.52-2.23l17.16-3.69c.27-.31.53.18.13.38l-7.35,9.44-11.53,13.67-16.06,17.67c-16.19,17.13-33.26,33.34-51.48,48.36-13.26,10.93-27.06,20.96-41.36,30.38l-14.33,9.44-6.34,4.51c-2.11,1.5-4.53,4.4-3.69,6.11,1.72,3.51,16.79.92,22.55-.17,10.76-2.04,20.9-5.35,31.13-9.26,28.62-10.94,55.43-28.12,79.09-47.45l20.26-17.58c8.19-7.49,15.98-15.14,23.26-23.17l-.38,11.11-2.09,42.14-1.83,19.33c-.14,1.53-1.24,2.49-2.77,2.54-5.4.18-10.63-.28-15.95-1.39l-16.21-3.4c-4.61-.97-10.23-1.63-10.36,2.67-.05,1.61.33,3.36,1.15,4.78,1.4,2.41,2.86,4.63,4.87,6.58l17.34,16.9,18.23,17.8,15.31,16.04c3.12,3.27,6.55,5.99,10.44,8.31,7.7,4.58,16.3,2.68,22.1-3.82,4.31-4.83,8.08-10.18,10.31-16.25l4.03-10.97c3.55-11.73,4.32-23.7,3.55-35.99l-5.15-81.61-.1-4.56c-.17-.47.34-.66.52-.21l3.31,3.91,30.26,34.7c11.99,13.25,23.91,26.41,36.98,38.56l13.68,12.72,7.03,5.6c9.01,7.17,18.6,9.84,30.19,8.89,21.16-1.74,41.95-4.86,62.68-9.38l22.4-5.74c5.32-1.37,12.32-4.14,12.97-9.56.3-2.52-.44-4.8-2.14-6.66ZM117.65,224.99l6.57-3.5c17.01-8.38,34.21-15.79,52.08-22.8l.38,28.34-23.54,9.43-31.05,11.96-4.45-23.42ZM155.39,292.17l-22.81,6.01-7.87-34.95c9.83,4.56,20.62,5.99,31.25,3.91l21.09-6.06.2,25.06-21.87,6.03ZM228.94,273.31l.79-26.74c7.62-2.03,14.95-4.42,22.17-7.43,2.68-1.12,5.03-2.44,7.33-4.11,1.32-1.36,2.87-2.65,3.36-4.55.98-3.78-.19-7.52-2.29-10.77-3.05-4.63-7.57-7.76-12.78-9.77-5.34-2.03-10.96-2.71-16.81-2.36l.92-26.67,20.78-4.56,12.6-1.47,8.46.3c1.4.05,2.26,1.17,2.5,2.51.83,4.72.59,9.24-.31,14.01-3.4,17.89-7.24,35.42-11.52,53.13l-6.27,23.83c-3.54-.63-6.99-1.37-10.54-1-3.65.38-7,1.55-10.47,2.66l-7.91,3Z"/>
</svg>