<?xml version="1.0" encoding="UTF-8"?>
<svg id="Layer_1" data-name="Layer 1" xmlns="http://www.w3.org/2000/svg" viewBox="0 0 411.26 487">
  <defs>
    <style>
      .cls-1 {
        fill: #070707;
      }
    </style>
  </defs>
  <path class="cls-1" d="M409.2,238.29c-2.3-3.06-5.43-4.97-8.99-6.52l-26.09-11.4-30.53-15.43-22.61-11.99-29.3-15.78-8.53-4.41-8.42-4.44c-.42-.22-.82-.6-.5-1.09l6.25-9.64,7.04-11.97,2.28-3.88,5.66-11.3,1.37-3.38c2.22-5.46,2.6-9.58-.51-14.9-3.07-5.24-8.83-7.23-8.05-8.18.15-.18.84-.07,1.12-.09l20.86-1.15c5.27-.29,11.02-3.08,11.6-8.57.7-6.62-3.33-15.72-10.35-16.21l-9.33-.65-10.68-.81c-1.17-.09-2.02-2-2.47-3.04-2.25-5.24-2.9-10.79-2.26-16.52.65-5.84,2.2-11.38,4.74-16.63,1.7-3.5,4.04-6.41,6.28-9.55l4.01-5.63c1.53-2.69,1.33-5.52-.26-8.17-2.35-3.9-5.47-7.35-9.56-9.45l-11.99-6.18c-3.46-1.78-7.41-1.66-11.06-.29l-9.64,4.72c-9.46,4.63-19.35,7.66-29.75,9.22l-11.79,2.29c-2.95.57-5.39,2.34-7.64,4.39-4.19,3.81-5.53,10.42-6.31,16.15l-3.12,22.67c-.85,6.16-2.42,11.81-4.29,17.76-2.69,8.52-6.36,16.45-10.38,24.4-.66,1.31-1.04,3.14-.25,4.34,1.05,1.58,2.97,2.36,4.79,2.84,6.49,1.71,13.12.59,18.94-2.7,4.76-2.7,9.25-5.56,12.98-9.57l2.42-2.61c5.12-6.17,9.13-13.16,11.58-20.86,3.26-10.26,4.67-20.66,4.26-31.38l15.66-4.38c.16-.04.46-.13.6-.1.08.02.11.16.1.4-2.14,4.96-3.33,9.93-4.15,15.28-1.65,10.73-1.93,23.22,3.11,32.92,1.91,3.67,4.47,6.7,7.58,9.42.14.12.6.04.56.46-.01.18-.12.37-.45.5l-3.63,1.39c-16.93,5.73-33.53,11.88-50.05,18.74l-16.82,7.82-4.89,3.04c-.63-1.32-.74-2.67-.96-4.1-.51-3.48-1.76-6.64-4.34-9.19-2.28-2.26-5.81-2.9-9.07-2.54-3.53.39-6.58,1.84-9.62,3.53l-6.59,3.66-8.65,5.53,4.6-13.39c1.16-3.37,2.62-6.69,5-9.33,2.52-2.8,9.62-5.94,14.85-12.1,2.6-3.06,4.2-6.63,4.26-10.74.05-3.27-1.35-6.75-4.45-8.13-5.41-2.42-11.38-2.26-17.02-.71-4.85,1.33-9.1,3.35-13.68,5.39l-14.78,6.56c-1.87.83-5.05,1.22-5.51.22-.51-1.12.91-3.4,2.12-5.03,1-1.34,2.14-2.27,3.38-3.37,4.47-3.97,8.95-7.61,13.96-10.95l21.45-14.29,22.04-14.54c2.68-1.77,5.35-3.66,7.16-6.31,3.39-4.95,1.45-11.46-3.34-14.68-3.38-2.27-6.92-3.43-10.87-4.36-8.79-2.07-17.46-1.54-26.01,1.37-8.4,2.86-16.5,5.74-25.14,7.94-9.83,2.5-19.59,4.11-29.62,5.53-5.63.79-10.94.92-16.52,1.37l-11.7.93c-6.42,1.01-12.37,3.29-17.9,6.68-3.74,2.29-6.72,5.75-7.71,10.11-.91,3.98-.25,8.34,1.8,11.85,2.77,4.76,6.34,8.77,10.42,12.41,8.7,7.73,16.93,14.31,28.98,8.73,6.51-3.01,12.56-6.58,18.85-10.06.26-.15.43-.09.5.05.05.09-.06.41-.16.55l-9.47,13.97-14.62,22.28-12.86,20.02c0,.65-.85.47-.56-.09l-2.85-13.72c-.76-3.65-1.53-7.16-2.84-10.75-5.16,1.19-9.81,3.18-14.35,5.63l-8.23,4.43c-7.15,4.33-13.57,9.36-19.29,15.69l4.72,6.82c3.3,5.25,5.81,10.83,7.43,16.86,1.63,6.07,2.21,12,2.9,18.26,1.54,14,3.52,27.69,5.77,41.59l3.19,17.09c2.08,11.14,5.12,21.77,9.27,32.31,2.31,5.87,6.13,10.77,11.58,13.92l3.27,1.88c.16.06.11.4-.24.43-12.69,5.09-25.65,8.78-39.07,11.57l-16.41,3.86c-4.32,1.32-8.13,4.14-10.14,8.25-1.83,3.74-1.68,8.39.26,12.04,1.64,3.08,4.29,5.35,7.28,7.07,3.94,2.27,7.57,4.51,11.2,7.26,6.61,4.99,13.12,6.88,21.51,5.34,6.76-1.24,12.95-3.68,19.19-6.5,8.51-3.85,16.6-7.82,24.63-12.58l19.89-11.79,21.23-13.17.25,6.36c.23,6.03-.36,12.05-5.6,15.1l-14.61,8.51-4.59,2.75-7.73,2.23c-3.47,1-6.77,1.84-10.16,3.45-6.69,26.88-11.3,52.88-12.64,80.69l-.05,12.64c-.03,7.44.81,14.64,2.92,21.76,1.26,4.26,2.96,8.02,5.14,11.85,2.25,3.96,4.22,7.84,7.06,11.41,7.46,9.39,18.84,14.17,30.46,10.41,2.81-.91,5.3-2.25,7.17-4.58.77-.96,1.78-1.41,3.03-1.36l13.04.53c9.66.73,18.77.42,28.01-1.65l21.04-4.72,23.75-4.67,20.21-2.95c3.47-.51,7.04-1.08,10.49-.45,2.29.99,4.55,3.22,6.07,5.25l7.79,10.38c2.86,3.81,5.83,7.11,9.34,10.35,3.95,3.65,7.96,7.02,13.26,8.66,1.15.36,2.25.52,3.44.05,2.16-.85,4.28-1.8,6.24-3.14,9.12-6.2,16.33-14.3,21.73-23.99,6.72-12.06,11.18-25.03,13.75-38.63,1.72-9.11,2.95-17.97,2.95-27.21v-16.44s0-16.67,0-16.67c0-6.74.44-13.24,1.52-19.91.85-5.29,2.15-10.26,4.65-14.99,1.98-3.76,4.76-6.84,7.76-9.79l3.71-3.66c1.08-1.06,1.39-2.71,1.52-4.39.5-6.49-1.49-13.45-6.23-18.16-4.73-4.7-10.35-7.93-16.18-11.11-9.42-5.13-19.08-9.27-29.42-12.13-11.03-3.05-17.73-3.36-28.84-.27-3.24.9-8.28,2.32-8.55.45-.67-4.55,3.05-8.83,6.28-12.37l3.07-3.36,2.7-2.88c.19-.2.25-.61.18-.78-.08-.19-.3-.32-.56-.49l-6.08-3.89c-.15-.1-.35-.27-.33-.37.08-.4,18.83-1.53,27.11-6.65,2.23-1.38,4.14-3.79,3.27-6.04-.99-2.57-2.66-4.54-4.74-6.47-7.59-7.02-16.79-12.25-26.83-14.95-3.93-1.06-8-1.89-11.89-.63l-40.21,13-44.22,15.27c-24.5,8.46-48.77,17.04-72.71,26.85l-19.76,8.09c-.27.11-.65.17-.71,0-.04-.1.09-.33.11-.52l1.08-7.82c.43-6.19.23-12.26-.17-18.49-.03-.42.22-.59.34-.46l.39.4c4.17,3.06,8.97,5.37,14.26,5.53,8.56.24,21.36-5.69,29.2-9.98l14.41-9.01,10.19-7.7,11.61-10.06,13.57-11.92,8.07-7.79,4.51-4.54,4.52-4.47c-5.92-9.75-17.58-17.01-27.94-20.97l-19.41-6.08,13.12-6.41,34.99-18.88c.34-.18.83-.16.81,0l-.09.72c-.58,4.56,1.02,8.81,3.89,12.23,1.66,1.98,3.21,3.75,5.27,5.3l12.35,9.33,13.02,9.51,5.12,4c.26.2.17.67-.11.91l-2.71,2.29c-7.87,6.64-16.34,12.34-25.7,16.68l-7.08,2.35-10.51,3.85c-2.37.87-4.07,3.57-2.92,4.47,2.13,1.66,4.72,2.58,7.43,3.13,8.18,1.68,16.42,2,24.74,1.13,15.91-1.66,28.22-8.51,40.58-18.53,5.84,4.56,11.77,8.52,18.28,12.03l44.11,23.81,20.51,10.57,16.76,7.58c17.35,6.77,38.78,11.32,57.17,7.85,1.07-.2,2.34-.53,2.99-1.4,2.58-3.43,2.32-7.95-.25-11.37ZM215.26,248.22l21.87-2.1c-4.67,3.89-9.34,6.87-14.23,10.06l-22.25,12.71c.41-2.89.7-5.42-.87-7.75l-7.22-10.71,22.71-2.21ZM171.37,258.07c.99,1.52,1.33,3.19,1.63,4.93,1.42,8.15-.58,16.68-3.12,24.47l-7.67,1.39-.62-5.92c-.47-2.42-1.41-4.77-3.25-6.4-2.8-2.48-5.77-4.36-9.22-6.37,7.11-4.84,14.28-8.93,22.26-12.09ZM165.13,301.24c8.38-3.95,16.47-7.79,25.2-10.84l19.28-6.75,8.26-2.76c-.09,1.16-.61,1.58-.99,2.75l12.2,4.16,17.42,7.16,14,6.79c1.86.9,3.31,2.32,4.64,3.89,1.51,1.8,2.06,4.06,2.3,6.53,1.44,14.84,1.52,29.53.55,44.47l-3.19,31.4-7.01,36.13c-6.87-1.24-13.44-1.49-20.27-.42l-28.81,4.54-27.31,6.08-27.92,7.21-13.98,4.19c-3.91,1.17-7.75,2.35-11.76,2.94-1.54.23-2.73-.39-3.09-1.72l-1.51-5.59-9.49-35.26c-3.71-15.79-6.51-31.55-7.89-47.69-.52-6.13-.51-11.88.03-17.89.21-2.32,1.01-4.76,2.68-6.35,2.55-2.42,5.42-4.17,8.38-6l13.77-8.53c11.36-6.58,22.63-12.85,34.52-18.46ZM75.8,145.45l1.61-5.79c1.47-5.3,4.9-8.29,10.47-7.48-.98,6.44-2.84,12.93-7.15,17.62-.82.9-2.92,2.53-4.18,1.46-1.49-1.27-1.19-4.21-.75-5.8ZM87.67,197.7c-4.4,8.46-9.12,16.37-15.18,24.08l-2.53-30.34-.78-13.23c4.4,4.8,12.19,5.2,18.45,3.62l9.75-2.77-9.71,18.64ZM109.46,128.11c2.36-4.22,4.97-7.94,8.65-11.01l3.36-2.81c1.37,2.71,1.32,5.41.87,8.28-1.5,9.46-6.18,17.75-13.18,24.27-3.15,2.79-6.81,4.71-11.39,5.65,3.51-8.52,7.3-16.5,11.7-24.38ZM144.66,194.93l-8.83,5.22-6.44,3.71-19.96,9.98-1.98.7,7.5-11.84c5.26-8.61,9.74-17.36,14.23-26.78,4.32,7.19,9.21,13.45,15.47,19.01ZM252.69,143.58c-2.6,4.33-5.18,8.41-8.71,12.36l-4.47-1.96-13.26-6.01,11.39-5.61,7.91-4.15,10.28-5.54c.83-.45,1.48-1.15,2.61-1-1.38,4.33-3.46,8.08-5.76,11.91Z"/>
  <path class="cls-1" d="M144.08,346.98c7.2,6.84,14.13,4.52,23.01,1.14-1.4,2.25-3.32,3.63-5.28,5.17l-17.52,13.77c-3.71,2.92-6.16,6.96-6.71,11.51-.5,4.13,1.17,7.69,4.58,9.97,4.47,2.98,10.17,4.17,15.44,2.7,1.96-.55,3.6-1.84,5.27-2.95l14.11-9.31c6.31-3.59,12.92-5.99,19.9-8.22-1.68,3.7-4.04,6.84-6.84,9.9-11.34,12.44-23.51,23.84-36.29,34.8l-11.21,9.61c-2.34,2.01.1,6.31,2.29,7.02,1.97.64,4.2.61,6.31.1l27.81-6.74,50.38-14.27c3.83-1.09,5.39-5.16,4.31-8.73-1.32-4.36-4.86-7.24-9.11-8.77l-6.83-2.47,3.18-3.2,6.58-6.9c3.78-3.96,6.96-8.15,9.6-12.94,2.88-5.23,2.78-11.5-1.01-16.15-2-2.46-4.67-3.94-7.61-5.01-3.98-1.39-8.01-1.9-12.24-2.16-5.27-.58-10.16.02-15.48,1.61,6.49-5.7,13.75-9.76,21.18-13.67l8.09-4.25c10.27-5.39,12.6-11.97,17.05-21.59l2.28-4.94-25.11-10.23-8.46-2.74-5.17,10.75-3.65,4.84c-.64.35-1.34.3-1.93-.13-3.8-2.75-5.91-6.9-6.57-11.57l-26.32,10.92c1.06,3.42,2.07,6.6,3.74,9.62,2.3,4.17,5.26,7.7,8.19,11.52-5.95,1.14-11.42,2.91-16.78,5.28l-2.37,1.57.29-1.88c.02-7.53-.2-14.89-1.04-22.42l-21.56,11.53-13.19,7.49,6.88,10.66c2.3,3.57,4.68,6.9,7.82,9.75Z"/>
</svg>