<?xml version="1.0" encoding="UTF-8"?>
<svg id="Layer_1" data-name="Layer 1" xmlns="http://www.w3.org/2000/svg" viewBox="0 0 519.48 456.63">
  <path d="M256.52,66.53c2.36,4.54,3.85,9.26,4.29,14.45,1.04,12.41,1.82,24.59,1.77,37.14-.07,19.16-1.49,37.96-2.49,57.07l-1.21,23.18c.02,5.78,1.07,11.35,3.77,16.4,1.99,3.72,4.87,6.57,8.14,9.47-1.63,2.45-4.15,4.02-6.6,5.55-7.8,4.88-12.61,12.81-10.19,21.98,1.22,4.61,3.59,8.28,7.34,11.21,4.3,3.36,9.32,5.29,14.84,4.97,3.95-.23,7.3-1.87,9.88-4.88,2.38-2.77,4.51-5.63,6.44-8.76,1.89-3.06,4.18-5.46,6.75-7.91,7.95-7.58,17.03-13.24,27.44-16.76,3.43-1.16,6.88-1.64,10.45-1.53,4.26.13,1.22,7.37-1.14,11.38-2.74,4.66-5.8,8.81-9.48,12.81l-22.72,24.68c-2.96,3.21-5.72,6.2-8.24,9.88l6.28-.44c13.24-1.86,25.98-5.24,38.64-9.63,10.52-3.66,27.72-10.4,35.43-17.6l7.57-7.07c4.33-4.05,8.92-7.4,14.18-10.14,4.32-2.25,8.23-4.84,11.84-8.07,4.16-3.73,4.59-8.78,1.39-12.95-2.16-2.8-4.85-4.95-7.88-6.75l-7.54-4.48-10.97-6.29c-5.25-3.01-10.53-2.13-15.57,1.06-5.22,3.3-10.38,6.21-16.24,8.32l-14.65,5.27-31.86,10.59c-3.38,1.12-6.61,1.98-10.22,2.38,2.92-5.1,6.81-8.88,11.39-12.01l8.71-5.96c4.49-2.62,8.84-5.14,13.68-7.09l11.29-4.54,35.02-10.66c6.02-1.83,27.82-8.25,22.04-14.21-2.01-2.08-4.24-4.11-6.91-5.33l-7.23-3.33c-.77-.35-1.37-1.1-1.46-1.68-.43-2.94,4.37-6.51,7.57-8.33,3.29-1.87,6.53-3.32,10.1-4.59,6.32-2.25,12.48-4.22,19.12-5.42l17.61-3.18c5.91-1.07,17.13-2.7,20.91-6.4,6.91-6.78,1.92-21.84-3.4-28.86-3.25-4.29-7.86-7.38-12.77-9.45l-21.45-9.04c-5.18-2.18-10.5-3.47-16.1-4.06-5.29-.56-10.61.38-15.41,2.52-2.11.94-3.75,2.46-5.45,3.93-4.24,3.65-8.54,6.66-13.32,9.55-14.9,9-31.86,15.86-49.28,18.11-.53.39-.74-.44-.1-.31l8.97-6.4c5.82-4.15,11.34-8.4,16.29-13.58l18.75-19.61,13.63-14.8c5.01-5.44,10.66-9.87,16.86-13.88,2.17-1.4,4.05-2.95,5.63-4.93,4.98-6.26-4.2-15.75-10.13-19.77-5.31-3.59-10.83-6.52-16.73-9.01-3.44-1.45-6.92-2.26-10.55-2.94-6.74-1.27-12.97.71-18.65,4.35l-7.7,4.93c-6.75,3.36-13.73,5.76-21.13,7.25l-18.07,3.66-27.85,4.58c-3.68.61-6.99,1.49-10.17,3.36-6.73,3.94-9.45,10.46-5.75,17.59l2.61,5.03ZM305.24,66.35c2.81-2.78,6.73-4.19,10.63-3.84,6.11.55-2.45,17.7-5.52,22.88l-7.86,13.23-.08-8.29-.72-7.96c-.49-5.46-.27-12.24,3.55-16.02ZM292.91,162.65c.34-3.61,1.21-7.3,3.65-10.07.82-.6,2.38.37,3.09.84,3.39,2.23,6.58,4.33,10.3,5.83,7.72,3.11,13.27-1.91,19.73-6.34l13.04-8.93c5.08-2.96,10.12-5.58,15.71-7.41,1.22-.4,2.39-.71,3.67-.42.23,1.11-.06,2.23-.51,3.3-2.05,4.93-4.47,9.51-7.25,14.09-2.97,4.89-6.43,9.25-10.65,13.05-1.83,1.65-3.69,2.79-6.09,3.33l-13.66,3.03-18.75,4.07c-4,.87-7.74-.47-10.03-4.03-2.02-3.13-2.6-6.72-2.25-10.35Z"/>
  <path d="M518.18,418.24c-3.4-6.95-8.57-13.31-15.44-17.23-6.8-3.88-14.01-6.38-21.21-9.31l-12-5.58c-3.56-1.66-7.09-3.23-11.05-3.55-5.59-.46-10.93.07-16.54.74-8.83,1.07-17.41,1.79-26.28,1.3l-8.6-.47c-.25-.01-.72-.03-.86-.17-.08-.09.08-.37.19-.53l6.56-9.88,12.68-23.9,6.82-13.13c3.49-6.72,8.03-12.62,13.69-17.63l4.3-4.23c2.9-2.85,4.8-6.36,4.91-10.51.09-3.55-.62-6.81-2.34-9.9-4.8-8.61-12.33-13.05-20.47-17.93l-13.03-9.48c-2.01-1.46-3.84-2.86-6.11-3.87-4.54-2.03-9.62-2.44-14.2-.41-4.64,2.05-7.64,6.39-15.97,8.65l-15.89,4.31-24.62,7-32.71,10.39c-9.66,3.07-19.14,5.76-29.1,7.47-2.38.41-4.88.19-7.02-.76-1.16-.52-2.16-1.63-2.91-2.62-5.28-7.1-15.27-7.92-21.68-1.76-7.52,7.22-13.32,21.15-15.15,31.68-2.54,2.12-5.22,3.78-8.1,5.39l-6.96,3.9-15.2,7.92-11.58,5.75c-.13.44-.69.27-.46-.04l6.25-7.1,2.61-3,19.09-20.98,10.87-13.19c5.22-6.33,13.16-18.22,15.77-25.79,1.3-3.78,1.81-7.91.41-11.68-3.36-9.03-14.83-14.19-24.06-15.77-3.38-.58-6.67-.52-9.93.61-4.01,1.4-7.82,3.46-10.94,6.23-1.36,1.21-1.57,2.69-.73,4.18,1.75,3.11,2.51,6.45,1.91,10.03-1.36,8.14-3.18,15.95-5.7,23.79l-4.29,13.32-4.89,12.57-.12-17.88c.19-11.76.97-23.23,2.88-34.84,1.18-7.18,4.41-13.57,10.24-17.96,3.92-2.95,8.17-4.94,12.58-7.06,5.77-2.78,11.18-5.65,16.37-9.4,6.02-4.35,12.43-12.08,10.57-19.48-1.65-6.61-10.23-9.25-16.89-9.72-11.56-.81-19.26,3.71-25.95,3.15-.32-.03-.63-.13-.77-.32-.52-.68,1.86-3.99,4.18-5.15l10.75-5.39,19.44-9.21c3.74-1.77,7.28-4.23,6.5-8.41-.88-4.71-.61-9.42.67-14.03,1.64-5.91-5.19-10.37-9.42-10.91l-9.38-1.2c-4.14-.53-7.96-1.74-11.85-2.99-3.55-1.14-7.07-1.01-10.04,1.06l-8.13,5.68c-13.63,10.45-29.53,21.27-45.59,27.28-.3.11-.41.24-.61-.06-.11-.16.2-.35.31-.53,7.38-12.18,15.28-23.8,24.14-34.94l8.72-10.96,10.59-12.55,12.8-14.11c1.28-1.41,3.05-1.46,4.69-.53,4.66,2.66,8.41,6.26,12.61,9.63l14.77,11.86c2.52,2.03,5.19,3.64,8.21,4.67,5.79,1.97,9.57-3.51,11.08-9.18,3.01-11.36,1.12-24.83-3.29-35.75-1.84-4.56-3.64-9.09-7.08-12.58l-9.47-9.56c-2.05-2.07-4.1-3.85-5.81-6.23-4.24-5.9-2.54-10.25.23-16.13,2.3-4.88,3.81-10.1,3.11-15.63-1.36-10.73-6.22-20.49-13.51-28.32-6.11-6.56-14.5-6.61-22.49-2.94-6.19,2.84-11.81,6.3-17.63,9.84-4.88,2.97-9.36,6.07-13.68,9.75-6.34,5.4-10.33,12.36-11.62,20.65-1.13,7.24-2.79,14.11-5.84,20.78l-6.01,13.12c-12.07,24.72-24.79,49.02-38.04,73.22-18.54,33.86-38.78,66.55-60.8,98.24l-26.74,37.12-11.96,16.19c-.49.67-.88,1.29-.92,2.29,1.08.3,2.12.09,3.12-.37l11.27-5.14,15.43-7.42,16.28-5.7c5.99-2.1,11.39-4.68,16.67-8.26,14.01-9.49,27.09-20.08,39.23-31.86l7.73-8.16,10.02-12.5,6.18-9.07c1.77-2.6,4.34-5.95,6.66-4.81,4.2,2.06,8.45,3.64,12.99,4.85,2.79.74,5.39,1.59,7.93,2.9,2.16,1.12,3.26,3.22,2.68,5.72-2.29,9.92-15.17,19.58-24.23,23.14l-23.74,9.32c-4.12,1.62-8.14,2.66-12.04,4.71-3.29,1.73-5.27,5.07-3.65,8.16,1.16,2.2,2.45,4.26,4.26,5.99l8.41,8.02c7.5,5.98,16.79,9.46,26.44,9.71,7.44.19,14.42-1.38,21.6-3.75.88,6.39.87,12.78.8,19.39-.09,8.73-.68,17.1-1.61,25.76-.35,3.26-.85,6.32-2.64,9.03-.94,1.43-2.19,2.73-4.17,2.8-.17-2.64-.67-4.99-1.27-7.49l-2.85-11.75c-.65-2.69-.47-5.35.65-7.9l4.56-10.37c.96-2.18,1.99-4.3,2.14-6.68-3.76,1.6-6.48,4.02-9.36,6.47-5.57,4.74-8.33,5.95-15.64,3.84-5.13-1.48-12.09-3.95-16.94-2.09-2.72,1.04-4.8,3.36-5.79,6.23-3.28,9.53-3.22,19.91-.07,29.48,2.32,7.06,6.69,12.7,12.66,16.96,4.09,2.92,8.77,4.65,13.89,3.97,5.9-.78,12.91-3.94,15.23-9.94,4.36,3.98,7.6,7.79,6.73,13.72-10.14,5.36-20.4,9.64-30.96,13.95-8.35,3.41-16.54,6.52-25.17,9.05-2.43.71-4.92,1.21-7.38.93l-6.22-.72c-5.02-.58-9.38-.51-12.25,3.61-2.27,3.26-4.06,6.9-5.32,10.71-1.04,3.13-.91,6.23.1,9.3,1.42,4.35,3.53,8.2,6.29,11.9,7.38,9.86,16.88,17.69,28.45,22.22,6.29,2.46,13.15,2.91,19.74,1.5,6.03-1.29,11-4.97,14.01-10.29l6.88-12.16c1.83-3.23,4.11-5.92,7.1-8.18l18.02-13.58,18.54-12.82c8.61-5.95,16.86-12.01,24.77-18.85,7.92-6.84,14.86-14.23,20.93-22.71l5.91-8.27c.21-.24.55-.01.45.33l1.44,8.57,2.37,10.54c1.53,6.82,4,13.26,7.09,19.53,2.41,4.88,5.76,8.83,8.87,13.33l-9.9,2.34-17.56,2.72-25.97,3.6-18.05,2.71c-2.51.38-4.84,1.15-7.03,2.36-2.49,1.38-4.12,4.22-3.44,7.04,1.28,5.36,7.42,11.56,11.61,15.67,6.81,6.67,14.2,12.33,22.58,16.92,9.27,5.07,16.89,6.53,26.84,2.43,8.15-3.36,16.06-6.64,24.64-8.75l17.87-4.4,41.44-6.66c21.74-2.79,43.4-3.93,65.33-3.86,20.85.07,41.37,1.87,61.76,6.02l23.97,4.88c11.06,2.25,22.33,4.29,32.98.67,3.54-1.2,6.73-2.85,9.85-4.76,2.84-1.74,5.06-3.84,6.98-6.54,2.64-3.74,3.16-8.31,1.05-12.61ZM311.65,386.16c-.8,1.77-2.07,2.9-3.85,3.58-5.72,2.21-11.72,3.35-17.88,3.41-2.33.02-4.16-1.46-4.4-3.74-1.92-4.29-3.26-8.54-4.18-13.17l-5.2-26.09c-.94-4.74-1.95-15.88.16-18.94,2.2-3.19,6.5-4.49,10.23-3.41,1.8.52,2.98,1.92,2.88,3.56l-.45,7.36c-.4,6.44-1,12.66-.62,19.09.25,4.15.66,8.14,2.06,12.06,1.52,4.27,5.55,8.44,10.12,9.44,2.63.57,5.25-.56,7.26-2.23,2.86-2.38,4.3-5.63,5.22-9.2l6.02-23.2,2.67-10.22c.9-3.46-.37-6.68-2.92-9.12l-4.62-4.44c-.39-.37-.57-.92-.55-1.38.02-.5.47-.94,1.1-1.18,4.83-1.85,10.09-2.51,15.17-1.5,2.51.5,4.1,2.39,4.34,4.82.32,3.18-.06,6.13-.85,9.26-2.31,9.22-5.28,18.01-8.89,26.85l-12.83,28.39ZM384.65,311.34c-.61,6.6-2.38,12.73-4.75,18.93-4.38,11.46-8.99,22.56-14.55,33.48-3.45,6.77-7.03,13.16-11.46,19.28-1.62,2.37-3.96,3.8-6.83,4.08l-17.33,1.67,15.28-14.88,8.68-10.1c3.92-5.18,7.03-10.66,10.37-16.26l8.76-14.67c1.79-3,2.3-6.25.92-9.46-2.73-7.25-9.62-11.39-13.99-17.77,6.48-1.81,12.9-2.35,19.31-1.58,2.02.24,4.14,1.33,5.1,3.02.71,1.24.63,2.87.5,4.26Z"/>
</svg>