<?xml version="1.0" encoding="UTF-8"?>
<svg id="Layer_1" data-name="Layer 1" xmlns="http://www.w3.org/2000/svg" viewBox="0 0 358.66 449.85">
  <g>
    <path d="M52.07,217.5c-.65-3.15.17-6.53,1.73-9.11,1.45-2.41,4.4-3.44,7.06-3.32,4.27.2,5.82,2.89,9.89,1.52l18.41-6.18,13.95-4.81,6.3-2.19c.22-1.2-.36-2.27-.37-3.43l-.17-15.38-19.9,10.94c-.47.26-1.03.41-1.53.09,2.67-2.41,5.23-4.42,8.2-6.22l-2.94-.07c-7.31-1.49-15.45-4.34-17.8-11.78-.44-1.38-.35-3.16.72-4.11,1.13-1,2.61-1.46,4.14-1.76,10.04-2.01,19.7-4.99,29.2-8.8v-13.05s-7.63.46-7.63.46c-2.86-.28-5.66-.21-8.46-1.05-4.9-1.47-9.66-3.79-13.48-7.24-1.95-1.75-3.16-4.41-4.03-6.74s.61-4.68,2.96-5.17c14.69-3.04,32.06-8.07,46.22-13.17,4.42-1.59,8.22-3.65,12.26-5.88,3.26-1.8,6.83-2.57,10.54-2.38,8.46.43,17.28,3.27,22.01,10.42,1.61,2.43,2.08,5.59.72,8.17-1.51,2.86-4.16,4.77-7.28,5.64l-21.49,5.95c-.39.11-.78.28-.98.42-.34.23-.24.86-.3,1.28l-1.58,10.56,9.44.12,3.61.41c3.74.42,7.38,1.82,10.09,4.59,2.49,2.54,3.39,6.89,1.92,10.16-.91,2.03-3.13,3.25-5.14,3.94l-17.39,6.02c-.86.35-1.7.55-2.44,1.19l-.92,15.84,32.02-11.09c2.19-.76,4.08-1.49,6.6-1.63-.9,2.36-2.32,4.16-3.93,6-4.67,5.35-9.88,9.99-15.56,14.27l-10.19,7.68-14.04,9.44-26.3,16.45-20.61,12.15c-1.69.99-3.15,1.74-4.57,3.11-4.22,4.08-10.41,4.74-15.47,1.47-6.63-4.28-11.85-15.7-13.52-23.71Z"/>
    <g>
      <path d="M177.51,55.95c.1-.39.28-.67.64-.52,10.07,4.34,21.93,4.7,28.84-5.14.3-.26.57-.02.82.3l18.83-2.79,24.42-3.34,20.48-2.11c7.15-.74,15.15-2.46,21.35-5.9,2.66-1.48,5.49-2.61,8.62-2.73,3.86-.14,7.9.6,11.13,2.77l11.57,7.75,8.96,5.97c9.25,6.16,22.36,18.74,24.96,29.52,1.91,7.92-1.28,14.83-8.52,18.41-4.55,2.26-9.32,3.13-14.39,3.51l-8.74.02-7.15-.88c-4.98.24-9.73,1.3-14.51,2.66l-10.97,3.12c-.26-.02-.29-.31-.21-.51.47-1.23,1.34-1.94,2.38-2.62l7.41-4.8-7.22.81-3.38.43-4.58.85c-1.26.23-2.16-.13-3.49.25l-12.58,3.58-.68.03c-.1,0-.29.07-.21.34.12.42,13.31,1.22,20.15,11.01,1.96,2.8,1.63,6.62-.33,9.24-1.69,2.25-4.11,3.35-6.93,3.69l-35.29,4.29c4.38,3.3,6.27,10.6,6.72,16.03.67,8.15.92,16.22.44,24.41-.32,5.4-1.8,10.3-4.61,14.73-2.02,3.19-5.36,4.76-9.19,4s-7.33-2.83-10.33-5.4l-6.16-5.27-8.16-7.35c-1.52-1.37-3.16-2.47-4.27-4.27-.17-.18-.28-.42-.19-.52.11-.12.5-.31.71-.33l8.55-1.05c2.27-.28,4.37-.48,6.76-.22l1.04-8.71v-9.3c-.44-4.57-1.31-8.96-2.37-13.34-9.33,2.54-20.27,5.45-28.25.25-7.61,6.83-17.41,11.43-27.81,11.98l7.75-14.49,8.09-15.36c3.43-6.03,5.98-12.23,7.72-18.93.93-3.58-1.09-4.78-.71-8.62.34-3.34,3.02-5.24,6.43-4.81,6.48.81,12.44,3.59,17.8,7.34,3.06,2.14,5.51,4.68,7.34,7.93.34.87.8,1.92.49,2.87-1.35,4.12-3.6,7.46-6,11.38,9.18-.93,17.78-2.8,26.11-5.89l13.02-4.85c1.94-.72,3.64-1.41,5.25-2.71,5.72-4.62,10.13-10.16,14.23-16.26,4.65-6.92,8.67-13.9,11.7-21.71l-8.03-.55c-15.18-1.04-32.13,0-47.44,1.66s-30.88,3.93-46.27,7.01l-13.2,2.94-16.05,3.88-19.5,5.39-11.5,3.48-14.68,4.63c-8.6,2.71-19.86.06-28.64-2.52l-5.78-1.27c-4.49-.64-9.09.49-12.67,3.42.98,8.39,1.33,16.58.04,24.89-1.1,7.07-2.83,13.66-4.97,20.5-3.19,10.19-7.86,19.7-14.01,28.39-3.01,4.25-6.75,7.66-11.28,10.11-3.19,1.72-6.63,3.15-10.34,3.15-9.55,0-17.68-6.06-21.28-14.74-1.78-4.3-3.14-8.49-4.26-13.01-2.19-8.79-.94-13.18,2.05-21.16.85-2.26,2.02-3.82,3.63-5.54,1.99-2.13,3.9-4.2,6.14-6.15,3.15-2.73,5.79-5.78,7.95-9.34l8.29-13.69c5.57-10.41,9.66-21.3,12.68-32.67.99-3.74,3.4-8.34,6.79-7.04,5.69,4.93,9.76,11.07,12.88,17.86,2.04,4.43,3.75,8.45,4.92,13.64,4.24-4.64,8.76-7.2,14.21-9.21,9.67-3.56,19.31-6.39,29.36-8.67l15.02-3.4,10.3-2.33,32.69-6.54,9.5-1.82Z"/>
      <path d="M207.8,50.59c-.77.11-.76.6-1.29,1.16l-3.15,3.27c-3.1,2.52-6.96,3.64-10.96,3.91-7.72.51-13.73-3.19-14.88-2.97-4.43-1.86-8.18-4.63-12.17-7.24-1.71-.69-4.02-.11-5.73.29l-8.09,1.9-12.87,2.14c1.43-2.24,3.35-3.54,5.11-5.2l9.95-9.39c.41-.39,1.33-1.26.92-1.84l-4.53-6.39c-3.69-5.2-6.85-10.54-9.28-16.46-1.95-4.76-2.83-10.62,1.95-12.31C144.62.8,146.56-.01,148.55,0l8.05.06c8.06.77,15.67,2.56,23.38,4.95,5.74,1.78,11.02,3.93,16.05,7.08,8.76,5.47,14.05,14.22,14.77,24.56.21,3,.02,5.99-1.13,8.89l-1.88,5.05Z"/>
    </g>
    <path d="M263.66,185.9l11.48-10.75,6.12-6.5c.52-.55.87-1.55.46-2.24l-5.91-9.9-3.58-6.43c-.89-1.61-1.43-3.52-.76-5.35.32-.87,1.58-1.13,2.44-1.28,4.51-.78,8.94-.89,13.48.03,9.61,1.96,20.57,6.89,27.28,13.97,4.2,4.44,7.28,9.56,8.77,15.54,1.32,5.3.53,11.03-2.91,15.27-3.77,4.65-9.78,6.29-15.57,4.91-5.78-1.38-10.63-5.08-14.09-9.8-.88-1.19-1.56-1.09-2.85-.91l-24.35,3.44Z"/>
    <path d="M209.71,178.03c1.06,5.58,1.25,11.28-2.34,15.72-3.12,3.87-7.54,5.83-12.59,5.38-8.6-.76-13.13-7.34-15.48-15.26-1.11-3.76-.89-7.46.26-11.18.95-3.08,1.58-6.21,3.37-8.96,1.41-2.17,3.25-4.18,5.32-5.75,2.42-1.84,5.92-1.25,8.07.6,2.34,2.01,3.79,4.36,4.82,7.24l5.76-3.27,9.79-5.21-6.24,14.02c-1,2.24-1.2,4.2-.73,6.67Z"/>
  </g>
  <path d="M99.14,347.32c1.93,3.05,4.4,5.75,7.15,8.28,2.96,2.73,6.39,4.61,9.74,6.54-1.21,1.89-2.2,3.73-3.15,5.81-1.94,4.26-4.69,8.08-8.57,10.68-5.99,4.01-13.27,3.84-19.1-.2-2.72-1.89-5.36-3.77-7.04-6.68-3.9-6.73-3.41-13.68.82-20.07,1.68-2.54,4.15-3.8,7.14-4.09,1.5-.14,2.88-.28,4.42.02,2.68.51,5.35.45,8.03.2.25-.02.42-.29.57-.49Z"/>
  <g>
    <path d="M261.33,426.14c-4.4-3.87-8.74-7.83-13.02-11.88-5.41-4.85-10.9-9.57-16.48-14.18l.05-.7-15.56-12.6-16.08-11.72c-2.79-2.03-6.71-5.69-5.82-8.3,1.25-3.66,10.25-4.93,15.07-4.84,8.2.15,16.13,1.41,24.09,3.19l8.31,1.86c-2.4-1.81-4.35-3.53-6.09-5.84l-8.29-11c-1.08-1.44-2.46-2.14-4.29-1.93l-12.91,1.51-54.35,10.34c5.6,4.46,10.22,9.23,13.63,15.09,1.58,2.71,2.05,5.72,1.03,8.62-2.4,5.33-8.61,5.58-12.79,8.92l-7.02,5.61-16.08,12.92c-8.67,6.47-18.07,11.52-28.25,15.36-9.48,3.58-19,6.35-28.88,8.56-6.97,1.56-13.68,2.01-20.8,1.97-7.93-.05-15.59-1.24-23.08-3.68-1.23-.4-2.37-.96-3.25-2.02l5.5-2.38,12.98-5.78c12.09-5.71,23.6-12.23,34.62-19.86,10.73-7.44,20.37-15.96,29.4-25.35,4.27-4.44,7.92-9.02,11.6-14.01l-8.56-1.89c-.38.08-.79.15-1.17,0-2.38-.9-6.59-4.01-8.57-5.76-1.62-1.43-6.97-6.63-7.17-8.38-.03-.23-.01-.46.01-.7-3.26-5.16-5.16-10.93-7.4-16.76-1.76-4.58-3.52-9.23-2.92-14.28l2.83-14.13,4.77-33.89,2.92-28.98c.34-3.4,1.39-6.5,2.81-9.48,2.01-4.2,7.86-3.59,12.21-1.17,6.87,3.82,12.23,9.53,16.06,16.42,2.46,4.66,3.81,9.59,4.36,14.71.11.2.18.42,0,.59l.13,7.43c.36.62.11,1.14-.75,1.57-5.5,1.84-3.75,7.04.22,9.55l.14.7c.62.35.85.94.67,1.79-.44,8.17-.65,16.33-.64,24.48l-.58.63.04.67c-2.09,1.07-3.88,2.41-5.37,4.02,1.19,1.8,2.89,3.17,5.09,4.11.49.52.58.87-.13,1.22l-1.51,19.06-.93,5.09,19.51-4.07,37.21-9.04,10.2-2.47c2.61-2.89,6.16-5.48,10.18-5.7l5.39.71c5.52.73,10.63,2.37,16.23,4.02l1.04-9.61,1.54-26.02.07-12.3c-.35-17.95-1.37-35.65-3.18-53.66l-7.01.31c-13.28,2.07-32.39,6.26-44.43,11.51-7.04,3.07-15.02,6.05-22.65,4.89-7.53-1.14-14.67-3.4-21.61-7.02,1.98-3.8,5.22-6.35,9.02-8.24,6.42-3.21,13.19-5.3,20.21-7l17.7-4.28,13.68-3.04,27.69-5.97,8.04-5.67c5.99-4.23,13.15-4.57,19.53-1.15l8.1,3.3c7.11,2.9,13.68,6.31,19.81,10.95,3.84,2.9,7.37,5.81,10.24,9.68,3.69,4.96,4.29,10.84-.23,15.31-6.06,5.99-6.74,9.26-6.89,17.92l-.1,6.02.06,21.24.07,40.26c0,5.2-1.4,9.9-2.73,14.79-1.65,6.11-3.82,11.69-6.78,17.26-2.96,5.57-6.75,10.45-11.8,14.25l-4.84,2.62,27.69,10.56c9.74,4.23,18.75,9.58,26.4,16.94,6.82,6.56,11.35,14.81,13.04,24.1.92,5.06.18,10.06-1.92,14.6-3.94,8.55-12.3,13.71-21.74,13.13-8.78-.55-16.64-4.29-22.85-10.46l-12.33-12.24c-.49-.49-.85-.82-1.4-.97Z"/>
    <path d="M133.6,316.51c.05-.64-.23-.86-.88-1.15-2.29-1.04-5.23-3.48-4.56-4.49.49-.73,1.17-1.43,1.91-1.9l3.91-2.48c.84-1.12,2.08-1.93,3.73-2.43,2.4-1.04,4.85-1.9,7.33-2.59l4-2.67c8.52-6.58,17.17-13.09,25.94-19.51-12.81,3.39-27.31,6.96-40.11,1.06l-.36-.77c-1.88-.73-3.34-2.72-4.11-4.6-1.01-2.48.14-4.67,2.52-5.67.86-.36,1.63-.9,1.98-1.56l2.47-.64,6.27-2.29,24.46-8.89,13-5.21,6.49-2.59c3.52-1.4,12.66,1.21,17.18,2.8,1.94.68,3.44,1.7,5.16,2.77,2.91,1.8,5.25,4.34,5.87,7.82,1.04,5.85-6.61,10.48-12.58,11.87l-14.2,3.31c-1.62.38-2.94,1.1-4.3,1.9l-8.12,4.79-22.82,14.77c.31.35.88.32,1.39.14l24.4-8.65,2.25-1.03c2.07-.95,4.1-2.28,6.42-2.32l4.52-.07c4.35.3,8.15,2.16,12.02,3.95,3.42,1.59,6.05,3.84,7.5,7.47.39.99.96,2.47.98,3.63.09,3.95-3.11,6.36-6.63,7.09l-4.66.97-6.28,1.32-24.58,4.92-10,1.44-2.34.3-3.19.25-3.84.34-7.61.13-1.46-.43c-2.47,0-4.71-.39-7.03-1.14-.73-.24-1.44-.32-2.04,0Z"/>
    <path d="M261.33,426.14c-8.48-2.32-17.18-2.54-26.09-1.45l-17.27,2.62-21.01,3.42c-.25.04-.65-.47-.59-.66.08-.24.14-.8.49-1.08l30.36-24.29,3.43-3.36c.56-.55.94-1.24,1.22-1.95l2.17,1.63,14.66,12.81,3.26,2.95,4.68,4.4,4.19,4.01c.31.3.49.59.51.95Z"/>
    <path d="M134.78,260.33v-.59c.11.08.22.22.22.4,0,.13-.1.22-.22.19Z"/>
  </g>
</svg>